PathFileType	4	(X/Y/Z)	C:\Users\Basilio\Documents\Thesis Gigler\squatting_fais\c3dfiles\058\SLS_back_pre5\markers_experimental.trc
DataRate	CameraRate	NumFrames	NumMarkers	Units	OrigDataRate	OrigDataStartFrame	OrigNumFrames
200.000000	200.000000	4	61	mm	200.000000	867	1156
Frame#	Time	FHD			LBHD			RBHD			C7			T10			CLAV			LSHO			LUUPA			LMUPA			LDUPA			LLEP			LMEP			LUL			LRFIN			RSHO			RUPA1			RMUPA			RDUPA			RLEP			RMEP			RUL			RUFIN			LASI			RASI			USACR			LSACR			RSACR			LTHI1			LTHI2			LTHI3			LTHI4			LLFC			LMFC			LTIB1			LTIB3			LTIB4			LLMAL			LMMAL			LHEE			LMT1			LMT5			RTHI			RTHI2			RTHI3			RTHI4			RLFC			RMFC			RTIB1			RTIB2			RTIB3			RTIB4			RLMAL			RMMAL			RHEE			RMT1			RMT2			RMT5			LTIB2			LMT2			LRAD			RRAD			
		X1	Y1	Z1	X2	Y2	Z2	X3	Y3	Z3	X4	Y4	Z4	X5	Y5	Z5	X6	Y6	Z6	X7	Y7	Z7	X8	Y8	Z8	X9	Y9	Z9	X10	Y10	Z10	X11	Y11	Z11	X12	Y12	Z12	X13	Y13	Z13	X14	Y14	Z14	X15	Y15	Z15	X16	Y16	Z16	X17	Y17	Z17	X18	Y18	Z18	X19	Y19	Z19	X20	Y20	Z20	X21	Y21	Z21	X22	Y22	Z22	X23	Y23	Z23	X24	Y24	Z24	X25	Y25	Z25	X26	Y26	Z26	X27	Y27	Z27	X28	Y28	Z28	X29	Y29	Z29	X30	Y30	Z30	X31	Y31	Z31	X32	Y32	Z32	X33	Y33	Z33	X34	Y34	Z34	X35	Y35	Z35	X36	Y36	Z36	X37	Y37	Z37	X38	Y38	Z38	X39	Y39	Z39	X40	Y40	Z40	X41	Y41	Z41	X42	Y42	Z42	X43	Y43	Z43	X44	Y44	Z44	X45	Y45	Z45	X46	Y46	Z46	X47	Y47	Z47	X48	Y48	Z48	X49	Y49	Z49	X50	Y50	Z50	X51	Y51	Z51	X52	Y52	Z52	X53	Y53	Z53	X54	Y54	Z54	X55	Y55	Z55	X56	Y56	Z56	X57	Y57	Z57	X58	Y58	Z58	X59	Y59	Z59	X60	Y60	Z60	X61	Y61	Z61	

868	4.335	-241.0013275146485	1806.193725585938	-621.0411987304689	-393.447967529297	1756.187866210938	-704.8594360351564	-220.4629516601563	1813.507690429688	-763.9576416015626	-406.2761535644532	1596.538696289063	-715.6207885742189	-423.6421813964845	1293.009399414063	-713.3087158203126	-250.3822631835938	1548.762451171875	-695.9738769531251	-254.8887939453126	1600.859741210938	-848.5437011718752	-96.96815490722659	1539.328491210938	-953.660827636719	-73.89376831054689	1576.681640625	-927.4176025390627	-27.82954406738282	1539.637084960938	-941.508728027344	46.15629959106446	1544.770263671875	-923.0861816406252	49.94157028198244	1489.352905273438	-888.2429809570315	313.7874145507813	1581.794555664063	-895.0930786132815	405.4963684082032	1589.239868164063	-811.987731933594	-274.2485656738282	1601.527954101563	-545.3039550781251	-117.5087356567383	1517.295776367188	-437.5127258300782	-94.43376922607423	1556.332763671875	-460.317596435547	-48.4937210083008	1527.046875	-438.191375732422	18.93850326538086	1520.286010742188	-445.4699707031251	27.03428268432618	1462.767822265625	-498.4891052246095	287.2046813964844	1560.975341796875	-435.2823791503907	381.5374145507813	1581.777709960938	-498.791229248047	-255.7063751220704	1085.93798828125	-849.4768066406252	-256.5846862792969	1070.16064453125	-608.9077148437501	-442.5906372070314	1177.267456054688	-713.8123779296876	-451.9281005859376	1147.855590820313	-743.7216186523439	-448.1555786132814	1143.2314453125	-686.0465698242189	-270.9349975585938	819.464050292969	-947.5915527343752	-230.1825866699219	743.8556518554689	-950.5545043945315	-185.075912475586	745.2510986328126	-924.3078613281252	-252.8826599121094	688.2744140625001	-950.659362792969	-265.6206359863282	608.7773437500001	-944.0717773437502	-247.1410064697266	575.4689941406251	-817.2991333007815	-353.9314270019532	507.8292846679689	-918.5955810546877	-399.4727478027345	518.3950805664064	-949.8054199218752	-476.5886840820314	488.7604980468751	-923.6008300781252	-679.8217773437501	508.0388488769532	-913.6464843750002	-650.3397827148439	458.930145263672	-839.7288208007815	-662.9419555664064	557.5150146484376	-848.8699340820315	-766.7418823242189	363.0567932128907	-835.976989746094	-804.593688964844	426.461151123047	-914.2268676757815	-374.0820922851563	867.399597167969	-557.5743408203126	-339.2512817382813	810.8894653320315	-559.1852416992189	-306.4689636230469	809.8916015625002	-560.7852172851564	-369.2096862792969	735.1978149414064	-581.7738647460939	-364.8221130371094	554.2479858398439	-614.2437133789064	-331.7677917480469	551.8525390625001	-748.1134033203126	-310.0644836425782	358.2130432128907	-715.5709228515626	-346.1131286621094	273.5555725097657	-658.3811035156251	-309.5546264648438	271.0800476074219	-689.9133300781251	-318.1448059082032	229.7329101562501	-728.6571044921876	-375.3285827636719	116.7442321777344	-698.9489746093751	-344.2159118652344	144.7248840332032	-784.1463012695315	-438.8815307617189	101.5309219360352	-764.1235961914064	-228.9513092041016	60.57848739624025	-775.5141601562502	-222.8497314453126	59.86208343505861	-723.6172485351564	-272.9509582519532	27.62973213195801	-672.3453979492189	-405.822479248047	562.0413818359376	-954.395935058594	-797.2521972656252	361.8979492187501	-867.7302856445315	308.4095458984376	1561.107299804688	-816.471374511719	nan	nan	nan	
869	4.34	-241.3526458740235	1806.268798828125	-621.2761230468751	-393.6922607421876	1756.310668945313	-705.0623779296876	-220.8274993896485	1813.484619140625	-764.0915527343751	-406.6414794921876	1596.606079101563	-715.6698608398439	-423.7250366210939	1292.962280273438	-713.2791137695314	-250.7040557861329	1548.87548828125	-695.9562377929689	-255.2194824218751	1600.8349609375	-848.6325683593752	-97.28022003173831	1539.254638671875	-953.7136230468752	-74.35056304931642	1576.641357421875	-927.491882324219	-28.19731330871583	1539.582153320313	-941.5544433593752	45.92316818237305	1544.609375	-923.2236328125002	49.3823699951172	1489.197021484375	-888.1243896484377	313.5275573730469	1581.6396484375	-895.200866699219	405.2264709472657	1589.123413085938	-812.0827636718752	-274.8115844726563	1601.626220703125	-545.2457885742189	-117.6238784790039	1517.446533203125	-437.5730285644532	-95.08724212646486	1556.249267578125	-460.2579040527345	-48.82736587524415	1527.164184570313	-438.3071594238282	18.53333473205567	1520.48193359375	-445.6560974121095	26.80803680419923	1463.005859375	-498.676239013672	286.6209716796876	1561.121459960938	-435.1804809570314	381.4190673828126	1582.055297851563	-498.6320800781251	-255.6507415771485	1086.028442382813	-849.5650024414065	-256.5057983398438	1070.176147460938	-608.9474487304689	-442.5752563476564	1177.181030273438	-713.8088378906251	-451.9798583984376	1147.81298828125	-743.7122802734376	-448.1385498046876	1143.232543945313	-686.0153808593751	-270.7429809570313	819.3834228515627	-947.2935791015627	-229.9525146484376	743.8732299804689	-949.9751586914065	-184.9642028808594	745.2246093750001	-923.8699340820315	-252.7286224365235	688.1122436523439	-950.180603027344	-265.4957275390626	608.6453857421876	-943.652770996094	-247.1368408203126	575.4024047851564	-817.0906372070315	-353.4831237792969	507.8040161132814	-918.3162231445315	-399.1910705566407	518.1946411132814	-949.6075439453127	-476.2454528808595	488.6062622070314	-923.1000976562502	-679.7197875976564	507.6365966796876	-913.3463134765627	-650.2174072265626	458.3954467773439	-839.1558227539065	-662.8834838867189	557.1000976562501	-848.4702758789065	-766.3242797851564	362.7106628417969	-835.811706542969	-804.1558227539065	425.8384704589845	-913.9844970703127	-373.8456420898438	867.2600708007815	-557.5741577148439	-338.8053283691407	811.0810546875002	-559.2536010742189	-306.1171264648438	809.9224853515627	-560.7664794921876	-368.6257019042969	735.2167968750001	-581.7901000976564	-364.3565979003907	554.3074340820314	-614.1948242187501	-331.2267456054688	551.9377441406251	-748.1966552734376	-309.7756042480469	358.2272949218751	-715.6432495117189	-345.8249816894532	273.4938659667969	-658.4470825195314	-309.3270874023438	270.9325866699219	-689.9279174804689	-317.9712829589844	229.6326599121094	-728.6573486328126	-375.2782287597657	116.7965850830078	-698.9284057617189	-344.2168273925782	144.7653961181641	-784.208435058594	-438.8840942382814	101.6238784790039	-764.1023559570314	-228.9623107910157	60.5368003845215	-775.538757324219	-222.8273468017579	59.84429931640626	-723.6796264648439	-272.8967895507813	27.60971069335938	-672.4172363281251	-405.8434448242189	562.0188598632814	-954.112487792969	-796.7047119140627	361.3779907226563	-867.613952636719	308.1048889160157	1561.112915039063	-816.4953613281252	nan	nan	nan	
870	4.345	-241.522689819336	1806.43310546875	-621.4439086914064	-394.2977905273439	1756.28955078125	-705.1372680664064	-221.0749816894532	1813.577026367188	-764.2565917968751	-406.961395263672	1596.5380859375	-715.6819458007814	-423.846160888672	1292.901123046875	-713.2716674804689	-251.0027160644532	1548.93408203125	-696.0548706054689	-255.5474853515626	1600.89599609375	-848.627868652344	-97.77252197265628	1539.220336914063	-953.768005371094	-74.53829193115236	1576.648559570313	-927.5818481445315	-28.76615524291993	1539.464721679688	-941.5377197265627	45.3673324584961	1544.444946289063	-923.1831054687502	48.74645996093751	1489.33447265625	-887.874450683594	313.1324768066407	1581.450439453125	-895.2884521484377	404.9060668945314	1589.056884765625	-812.204772949219	-275.1483764648438	1601.662475585938	-545.2435302734376	-117.8937530517578	1517.607055664063	-437.5931091308595	-95.28773498535158	1556.466796875	-460.452362060547	-49.11477279663087	1527.1728515625	-438.4475708007814	18.19286918640137	1520.614013671875	-445.5262145996095	26.56942939758301	1463.122924804688	-498.6862182617189	286.1661071777344	1561.25634765625	-435.249481201172	380.9260559082032	1582.388061523438	-498.3066711425782	-255.6766815185547	1086.062133789063	-849.5815429687502	-256.3067626953126	1070.277709960938	-608.9929199218751	-442.6084594726564	1177.139770507813	-713.8444213867189	-451.9542541503907	1147.729736328125	-743.7045898437501	-448.0803222656251	1143.14404296875	-686.0441284179689	-270.5938720703126	819.273864746094	-947.0233154296877	-229.7339172363282	743.8134765625001	-949.7879028320315	-184.8793640136719	745.2077636718751	-923.5093383789065	-252.4599304199219	688.0238037109376	-949.8215332031252	-265.2980957031251	608.5039062500001	-943.2232666015627	-247.1073455810547	575.2386474609376	-816.865173339844	-353.0015869140626	507.6942749023439	-918.036315917969	-398.9783935546876	517.9592895507814	-949.3320922851565	-475.9832763671876	488.4485473632814	-922.742126464844	-679.4442749023439	507.1676330566407	-912.985778808594	-649.9029541015626	457.8704223632814	-838.8418579101565	-662.6148681640626	556.6908569335939	-848.1983032226565	-766.1358642578126	362.1242675781251	-835.5639648437502	-804.4361572265627	425.7859802246095	-913.635437011719	-373.6723022460938	867.1448364257815	-557.5828857421876	-338.5474548339844	811.0383300781252	-559.2911376953126	-305.5782470703126	809.9223632812502	-560.7633666992189	-368.1669616699219	735.0864868164064	-581.8103027343751	-363.8924255371094	554.3562011718751	-614.1772460937501	-330.8090515136719	551.9535522460939	-748.2435302734376	-309.3187561035157	358.2878112792969	-715.6387329101564	-345.5401916503907	273.4355163574219	-658.4898071289064	-309.2448425292969	270.8271484375001	-689.9490356445314	-317.9051513671876	229.6470336914063	-728.6680908203126	-375.1825866699219	116.8048248291016	-698.9013671875001	-344.1263427734376	144.750961303711	-784.2059326171877	-438.8801269531251	101.6271667480469	-764.1069946289064	-228.9414978027344	60.59130096435548	-775.558044433594	-222.8491210937501	59.86526107788087	-723.6336669921876	-272.9488830566407	27.64025688171387	-672.3865356445314	-405.9768066406251	561.9045410156251	-953.533874511719	-796.6201171875002	361.0998535156251	-867.4434204101565	307.8660278320313	1561.06005859375	-816.569030761719	nan	nan	nan	
871	4.350000000000001	-241.8154602050782	1806.387451171875	-621.5781250000001	-394.589080810547	1756.269409179688	-705.2587280273439	-221.7198944091797	1813.43701171875	-764.5238647460939	-407.2881469726564	1596.453979492188	-715.7062377929689	-423.9756774902345	1292.84423828125	-713.1895141601564	-251.3379058837891	1548.933959960938	-696.0610351562501	-255.9871215820313	1600.920654296875	-848.6751708984377	-98.12689971923831	1539.14306640625	-953.8210449218752	-74.97324371337892	1576.621704101563	-927.6322021484377	-29.1212329864502	1539.378662109375	-941.5925903320315	45.0699806213379	1544.380004882813	-923.1780395507815	48.25912094116212	1489.170776367188	-887.7669677734377	312.8190307617188	1581.326293945313	-895.3830566406252	404.6231689453126	1588.9521484375	-812.336120605469	-275.6497192382813	1601.756591796875	-545.3289184570314	-118.0386581420899	1517.845581054688	-437.5762634277345	-95.67050933837892	1556.4296875	-460.5620422363282	-49.31067657470705	1527.4169921875	-438.512908935547	17.77387428283692	1520.777709960938	-445.5471191406251	26.45030212402344	1463.32177734375	-498.7535095214845	285.6325988769532	1561.603393554688	-435.2727966308595	380.6611633300782	1582.695190429688	-498.2123413085939	-255.5913696289063	1086.140258789063	-849.6572875976565	-256.2579040527344	1070.3076171875	-609.0202026367189	-442.5408630371095	1177.086059570313	-713.8425903320314	-451.9548645019532	1147.64990234375	-743.6988525390626	-448.0896301269532	1143.0654296875	-686.0283813476564	-270.3951721191407	819.1799926757815	-946.869567871094	-229.5888214111329	743.8008422851564	-949.4417114257815	-184.769515991211	745.1968383789064	-923.175476074219	-252.2537536621094	687.9075927734376	-949.6010742187502	-265.0576477050782	608.4840087890626	-942.8292236328127	-246.9454498291016	575.1860351562501	-816.3701782226565	-352.6918029785157	507.5778198242189	-917.7673950195315	-398.6783752441407	517.6749877929689	-948.9366455078127	-475.7237854003907	488.2415771484376	-922.4874267578127	-679.3384399414064	506.8619384765626	-912.7587890625002	-649.7592163085939	457.5711364746095	-838.3668212890627	-662.2994995117189	556.0517578125001	-847.9446411132815	-765.7907714843751	361.5718688964844	-835.570739746094	-804.1272583007815	425.3876953125001	-913.5739746093752	-373.4602966308594	867.0692138671877	-557.5932006835939	-338.4726562500001	811.0103759765627	-559.3159790039064	-305.3629455566407	809.8640747070315	-560.7047729492189	-367.8882141113282	734.9685668945314	-581.7984008789064	-363.2785949707032	554.3012084960939	-614.2258300781251	-330.5001831054688	552.0297851562501	-748.2778320312501	-309.0497741699219	358.2022705078126	-715.6964721679689	-345.3507080078126	273.5099792480469	-658.4580688476564	-309.0324401855469	270.9204406738282	-690.0806274414064	-317.8733825683594	229.5741729736329	-728.7148437500001	-375.1857910156251	116.8432922363282	-698.8875732421876	-343.5215759277344	145.2200622558594	-783.9824218750002	-438.9297180175782	101.6204299926758	-764.0656738281251	-228.9441833496094	60.615291595459	-775.6024169921877	-222.8474731445313	59.83267974853517	-723.7109985351564	-272.9373474121094	27.63855171203614	-672.3703613281251	-405.7880249023439	561.7178955078126	-953.0803833007815	-796.2219848632815	360.6134338378907	-867.5457763671877	307.5787963867188	1561.020263671875	-816.595886230469	nan	nan	nan	
